PathFileType	4	(X/Y/Z)	C:\Users\86182\Documents\cortex\Trimmed_M1_L9.trc
DataRate	CameraRate	NumFrames	NumMarkers	Units	OrigDataRate	OrigDataStartFrame	OrigNumFrames
100.00	100.00	       56	2	mm	100.00	721	       901
Frame#	Time	gripper			box			
		X1	Y1	Z1	X2	Y2	Z2	

721	7.200	198.54405	195.01112	293.07266	198.50122	194.78473	150.39922	
722	7.210	198.53810	195.01190	293.07312	198.50011	194.79933	150.36925	
723	7.220	198.52095	195.00943	293.08228	198.49828	194.79845	150.36748	
724	7.230	198.53926	195.01152	293.07343	198.50098	194.80154	150.37334	
725	7.240	198.55261	195.01183	293.06903	198.49464	194.79674	150.36397	
726	7.250	198.51607	195.00871	293.08487	198.47432	194.79781	150.36386	
727	7.260	198.53810	195.01190	293.07312	198.49057	194.79712	150.37553	
728	7.270	198.53810	195.01190	293.07312	198.46146	194.79526	150.35800	
729	7.280	198.54768	195.01111	293.07166	198.47270	194.79581	150.34909	
730	7.290	198.53810	195.01190	293.07312	198.49075	194.79984	150.35449	
731	7.300	198.52826	195.01048	293.07837	198.47354	194.79204	150.35345	
732	7.310	198.51834	195.00990	293.08099	198.50378	194.80107	150.37276	
733	7.320	198.52582	195.01013	293.07968	198.44745	194.79764	150.36086	
734	7.330	198.52052	195.01109	293.07712	198.50636	194.80075	150.34686	
735	7.340	198.53320	195.01118	293.07574	198.46243	194.79393	150.35570	
736	7.350	198.52095	195.00943	293.08228	198.48631	194.79814	150.36566	
737	7.360	198.53281	195.01288	293.07056	198.50024	194.80414	150.35593	
738	7.370	198.53307	195.01009	293.07764	198.49432	194.79562	150.35829	
739	7.380	198.51131	195.01686	293.06027	198.48917	194.80008	150.35843	
740	7.390	198.53810	195.01190	293.07312	198.48730	194.79321	150.35698	
741	7.400	198.51363	195.00836	293.08618	198.52620	194.80684	150.36716	
742	7.410	198.52744	195.01387	293.06799	198.49330	194.79117	150.33565	
743	7.420	198.51515	195.01210	293.07455	198.48837	194.79080	150.34174	
744	7.430	198.51671	195.01585	293.06284	198.49091	194.79851	150.36685	
745	7.440	198.52744	195.01387	293.06799	198.49274	194.79939	150.36861	
746	7.450	198.53073	195.01083	293.07706	198.52516	194.80112	150.32423	
747	7.460	198.48470	195.01212	293.07721	198.52249	194.80276	150.33766	
748	7.470	198.52498	195.01352	293.06934	198.47346	194.79556	150.35979	
749	7.480	198.50317	195.01837	293.05640	198.49942	194.80435	150.34523	
750	7.490	198.53810	195.01190	293.07312	198.48854	194.79900	150.36006	
751	7.500	198.49855	195.01678	293.06161	198.47173	194.79117	150.35172	
752	7.510	198.52766	195.01303	293.07062	198.47859	194.78889	150.34103	
753	7.520	198.50665	195.01529	293.06552	198.47354	194.79204	150.35345	
754	7.530	198.50642	195.01614	293.06290	198.45976	194.79086	150.34996	
755	7.540	198.48956	195.02087	293.04987	198.47813	194.79839	150.35431	
756	7.550	198.49503	195.01988	293.05249	198.50514	194.80095	150.34349	
757	7.560	198.53548	195.01239	293.07187	198.46266	194.79282	150.34274	
758	7.570	198.50737	195.01274	293.07327	198.50389	194.79877	150.34676	
759	7.580	198.49855	195.01678	293.06161	198.50935	194.79782	150.34566	
760	7.590	198.52206	195.01488	293.06543	198.50899	194.80260	150.37234	
761	7.600	198.51941	195.01537	293.06415	198.50334	194.81076	150.36079	
762	7.610	198.52275	195.01231	293.07324	198.52484	194.79773	150.35306	
763	7.620	198.49417	195.01437	293.06943	198.49269	194.80293	150.37502	
764	7.630	198.52206	195.01488	293.06543	198.47997	194.79926	150.35606	
765	7.640	198.52206	195.01488	293.06543	198.49733	194.80338	150.37621	
766	7.650	198.50885	195.01651	293.06161	198.49353	194.80534	150.35365	
767	7.660	198.48547	195.01758	293.06030	198.48291	194.79677	150.36853	
768	7.670	198.49065	195.01744	293.06033	198.47662	194.79291	150.33331	
769	7.680	198.49229	195.02037	293.05115	198.48396	194.79500	150.35255	
770	7.690	198.49503	195.01988	293.05249	198.47740	194.79268	150.34395	
771	7.700	198.49776	195.01936	293.05377	198.46318	194.79970	150.36612	
772	7.710	198.52232	195.01401	293.06805	198.48721	194.79695	150.33806	
773	7.720	198.49039	195.01830	293.05771	198.48761	194.79674	150.35605	
774	7.730	198.49013	195.01917	293.05511	198.47462	194.78719	150.34483	
775	7.740	198.53302	195.01202	293.07318	198.49683	194.79640	150.34544	
776	7.750	198.51849	195.00908	293.08356	198.48367	194.79150	150.35349	
